<svg width="566" height="482" viewBox="0 0 566 482" fill="none" xmlns="http://www.w3.org/2000/svg">
<g clip-path="url(#clip0_2769:19000)">
<path d="M550.213 274.479C548.394 264.473 544.482 255.183 538.972 247.078L549.882 234.315L532.524 216.948L519.713 227.892C511.861 222.599 502.906 218.795 493.263 216.948L491.858 199.057H467.309L465.904 216.948C461.964 217.72 458.134 218.795 454.442 220.173L451.494 233.626L451.742 234.701L452.569 246.417L463.038 258.298C467.915 255.514 473.563 253.942 479.597 253.942C498.112 253.942 513.155 268.966 513.155 287.518C513.155 306.043 498.14 321.067 479.597 321.067C471.993 321.067 464.967 318.531 459.319 314.258L444.579 305.657C444.579 305.657 445.515 300.64 445.405 299.813C445.295 298.986 446.673 293.528 443.477 293.307C440.281 293.087 438.021 291.488 438.021 291.488H390.687V297.856L408.734 299.262C410.276 308.744 413.693 317.621 418.597 325.45L406.805 339.233L424.163 356.6L437.167 345.491C444.909 351.169 453.836 355.332 463.507 357.565L464.829 374.491L483.5 373.5L490.618 358.53C500.785 356.958 510.235 353.264 518.501 347.889L530.734 358.364L548.091 340.997L538.035 329.226C543.821 321.094 547.981 311.722 549.992 301.577L565.973 300.337V275.775L550.213 274.479Z" fill="#9EB6DF"/>
<path d="M198.622 0C147.541 0 106.461 41.46 106.461 92.2375C106.461 124.27 122.772 152.443 147.458 168.955L147.624 166.226L147.431 154.648C141.424 149.686 136.162 143.925 131.891 137.639C138.779 135.076 146.466 132.926 154.732 131.272C155.09 132.788 155.476 134.304 155.889 135.82L167.378 134.221C166.91 132.567 166.469 130.913 166.083 129.342C176.966 127.798 188.621 126.971 200.606 126.971C211.186 126.971 221.518 127.605 231.299 128.818C228.13 142.078 221.738 158.728 211.434 167.604C207.274 171.188 202.948 173.007 198.622 173.007C194.434 173.007 190.246 171.298 186.196 167.907C182.201 174.744 171.621 174.523 171.621 174.523L170.271 180.037C179.198 182.931 188.731 184.502 198.622 184.502C204.849 184.502 210.938 183.868 216.834 182.711L236.809 112.609H245.764C246.508 106.021 246.893 99.2118 246.893 92.2926C246.893 83.3059 246.232 74.5122 244.992 66.1044C254.828 64.3126 263.975 61.9143 272.131 58.9647C276.815 69.2194 279.294 80.5768 279.294 92.2926C279.294 99.1842 278.44 105.993 276.704 112.609H288.524C289.985 106.076 290.784 99.2669 290.784 92.2926C290.811 41.2119 249.456 0 198.622 0ZM185.811 16.8983C189.971 13.3146 194.297 11.4952 198.622 11.4952C202.948 11.4952 207.246 13.3146 211.434 16.8983C221.931 25.9401 228.351 43.0037 231.492 56.4837C221.656 57.7242 211.269 58.3582 200.606 58.3582C188.538 58.3582 176.829 57.5313 165.891 55.96C169.059 42.6178 175.451 25.8298 185.811 16.8983ZM126.133 127.495C126.105 127.495 126.078 127.523 126.05 127.523C120.843 116.827 117.95 104.89 117.95 92.2375C117.95 79.8326 120.733 68.0892 125.72 57.6415C133.82 60.8944 143.711 63.5683 152.39 65.305C151.068 73.9057 150.379 82.9751 150.379 92.2099C150.379 101.748 151.123 111.065 152.528 119.914C142.912 121.871 134.013 124.408 126.133 127.495ZM154.539 54.0303C146.163 52.3212 138.366 50.1434 131.423 47.5246C140.625 33.6862 154.291 22.5218 170.657 16.4848C162.722 27.153 157.542 41.1016 154.539 54.0303ZM233.503 117.461C223.006 116.11 211.93 115.421 200.606 115.421C187.877 115.421 175.451 116.303 163.824 118.012C162.529 109.825 161.84 101.141 161.84 92.265C161.84 83.6643 162.474 75.2841 163.686 67.3174C175.341 69.0265 187.794 69.9086 200.578 69.9086C211.957 69.9086 223.088 69.1919 233.613 67.8411C234.77 75.6424 235.377 83.8573 235.377 92.265C235.404 100.921 234.77 109.411 233.503 117.461ZM242.871 54.747C239.868 41.5151 234.66 27.2908 226.587 16.4848C242.568 22.3564 256.895 33.576 266.565 48.6824C259.402 51.1634 251.412 53.2033 242.871 54.747Z" fill="#D0CCE6"/>
<path d="M238.132 317.29L218.157 395.8H315.002L331.092 317.29H238.132Z" fill="#D0CCE6"/>
<path d="M336.685 215.763L323.57 267.864H407.411L419.672 215.763H336.685Z" fill="#D0CCE6"/>
<path d="M441.466 273.846C440.611 275.527 440.005 277.264 439.62 279.111C439.454 278.89 439.289 278.67 439.124 278.449C440.033 278.835 440.363 279.056 441.162 279.414C441.769 279.69 441.383 280.544 440.777 280.268C439.923 279.91 439.895 279.938 439.124 279.469C438.821 279.276 438.545 279.166 438.628 278.807C439.041 276.878 439.702 275.058 440.584 273.294C440.887 272.715 441.769 273.239 441.466 273.846Z" fill="#2A2769"/>
<path d="M449.042 273.542C449.94 273.542 450.668 272.604 450.668 271.447C450.668 270.29 449.94 269.352 449.042 269.352C448.144 269.352 447.417 270.29 447.417 271.447C447.417 272.604 448.144 273.542 449.042 273.542Z" fill="#2A2769"/>
<path d="M437.498 273.542C438.396 273.542 439.124 272.604 439.124 271.447C439.124 270.29 438.396 269.352 437.498 269.352C436.6 269.352 435.873 270.29 435.873 271.447C435.873 272.604 436.6 273.542 437.498 273.542Z" fill="#2A2769"/>
<path d="M446.976 282.887C446.59 283.604 445.874 284.018 445.13 284.266C444.717 284.403 444.276 284.486 443.862 284.569C443.504 284.624 443.091 284.624 442.76 284.459C442.182 284.155 441.658 285.038 442.237 285.341C443.201 285.864 444.414 285.561 445.405 285.258C446.397 284.955 447.362 284.376 447.858 283.411C448.188 282.805 447.279 282.281 446.976 282.887Z" fill="#2A2769"/>
<path d="M450.998 269.049C450.392 267.753 447.802 268.194 446.783 268.553C445.956 268.856 445.598 267.533 446.425 267.229C448.05 266.651 451.274 266.458 452.183 268.36C452.569 269.132 451.384 269.848 450.998 269.049Z" fill="#2A2769"/>
<path d="M439.592 268.773C438.407 268.167 436.892 267.781 435.762 268.746C435.101 269.325 434.109 268.36 434.798 267.781C436.423 266.375 438.49 266.678 440.308 267.588C441.08 267.974 440.391 269.187 439.592 268.773Z" fill="#2A2769"/>
<path d="M180.19 153.518C181.044 155.199 181.65 156.936 182.036 158.783C182.201 158.562 182.367 158.342 182.532 158.121C181.623 158.507 181.292 158.728 180.493 159.086C179.887 159.362 180.273 160.216 180.879 159.941C181.733 159.582 181.76 159.61 182.532 159.141C182.835 158.948 183.111 158.838 183.028 158.48C182.615 156.55 181.953 154.73 181.072 152.966C180.796 152.387 179.887 152.911 180.19 153.518Z" fill="#2A2769"/>
<path d="M172.613 153.214C173.511 153.214 174.238 152.276 174.238 151.119C174.238 149.962 173.511 149.024 172.613 149.024C171.715 149.024 170.987 149.962 170.987 151.119C170.987 152.276 171.715 153.214 172.613 153.214Z" fill="#2A2769"/>
<path d="M184.157 153.214C185.055 153.214 185.783 152.276 185.783 151.119C185.783 149.962 185.055 149.024 184.157 149.024C183.26 149.024 182.532 149.962 182.532 151.119C182.532 152.276 183.26 153.214 184.157 153.214Z" fill="#2A2769"/>
<path d="M173.798 163.083C174.294 164.048 175.258 164.627 176.25 164.93C177.242 165.233 178.454 165.537 179.418 165.013C179.997 164.71 179.474 163.8 178.895 164.131C178.564 164.296 178.151 164.296 177.793 164.241C177.352 164.186 176.939 164.076 176.526 163.938C175.782 163.69 175.065 163.276 174.68 162.559C174.376 161.953 173.495 162.477 173.798 163.083Z" fill="#2A2769"/>
<path d="M170.657 148.72C171.263 147.425 173.853 147.866 174.872 148.224C175.699 148.527 176.057 147.204 175.231 146.901C173.605 146.322 170.381 146.129 169.472 148.031C169.086 148.803 170.271 149.52 170.657 148.72Z" fill="#2A2769"/>
<path d="M182.063 148.445C183.248 147.839 184.763 147.453 185.893 148.418C186.554 148.997 187.546 148.032 186.857 147.453C185.232 146.047 183.165 146.35 181.347 147.26C180.575 147.646 181.264 148.859 182.063 148.445Z" fill="#2A2769"/>
<path d="M505.276 359.357C505.276 359.357 498.002 325.919 496.624 319.055C494.035 306.016 482.518 305.161 482.518 305.161L467.006 302.515C467.006 302.515 452.404 311.612 445.295 303.617C440.832 302.487 425.816 304.858 421.215 312.08C416.614 319.303 411.076 353.816 411.076 353.816L414.382 357.482L428.323 365.504L428.516 373.112L448.877 395.607L453.588 394.89L488.111 372.258L486.899 366.882C486.899 366.882 487.257 366.717 490.783 364.484C498.278 359.715 505.276 359.357 505.276 359.357Z" fill="#C7508E"/>
<path d="M162.171 217.555L179.253 208.182C179.253 208.182 169.114 188.665 165.67 181.911C162.226 175.158 157.405 175.158 152.859 176.949C148.313 178.741 140.35 185.412 162.171 217.555Z" fill="#424E8F"/>
<path d="M447.279 409.804C445.626 408.894 446.838 407.212 446.838 407.212C446.838 407.212 445.57 408.784 444.055 408.26C442.54 407.708 443.587 405.227 443.587 405.227C443.587 405.227 443.201 406.275 441.3 406.137C439.399 405.999 439.371 403.436 442.429 399.935C443.394 398.805 444.716 397.895 446.039 397.15L445.57 394.118L419.864 385.49C419.864 385.49 386.251 382.54 379.28 383.478C372.31 384.387 361.647 383.67 363.107 430.534L392.312 432.188L395.619 412.533L449.428 419.507L447.995 410.107C447.802 410.024 447.554 409.969 447.279 409.804Z" fill="#2A2769"/>
<path d="M479.9 433.593L479.212 396.461L464.389 405.475C464.389 405.475 459.099 407.267 457.501 407.405C455.903 407.543 454.608 410.189 451.742 410.961C448.904 411.733 449.814 408.728 449.814 408.728C449.814 408.728 448.932 410.686 447.279 409.776C445.626 408.866 446.838 407.185 446.838 407.185C446.838 407.185 445.571 408.756 444.055 408.232C442.54 407.681 443.587 405.2 443.587 405.2C443.587 405.2 443.201 406.247 441.3 406.109C439.399 405.972 439.372 403.408 442.43 399.907C444.11 397.977 446.755 396.654 448.794 395.827H448.326L433.696 402.223L439.785 407.681L441.355 414.297C439.509 444.427 439.013 476.018 446.948 479.988C454.856 483.93 482.132 470.339 482.132 470.339L489.103 459.864L479.9 433.593Z" fill="#424E8F"/>
<path d="M171.621 174C171.621 174 168.921 173.917 166.332 171.712C163.769 169.506 161.014 170.692 163.907 175.102C166.8 179.513 170.023 179.651 170.023 179.651L171.621 174Z" fill="#2A2769"/>
<path d="M444.937 292.398L445.461 300.309C445.901 300.309 446.535 300.309 447.417 300.309C449.869 300.309 456.536 296.312 456.399 293.087C456.261 289.862 451.026 292.37 444.937 292.398Z" fill="#2A2769"/>
<path d="M479.873 377.22L488 371.844L486.898 366.441L482.518 368.812L474.169 334.74L476.925 379.425L479.873 377.22Z" fill="#2A2769"/>
<path d="M45.3233 281.426C45.7916 280.351 31.6575 267.367 31.6575 267.367C31.6575 267.367 8.21076 289.779 3.80245 294.383C-0.633417 299.014 0.16559 297.911 0.16559 297.911C0.16559 297.911 -1.18446 302.018 3.69224 303.755C8.54139 305.492 12.9773 302.184 16.8896 299.648C20.802 297.139 25.1277 297.828 28.4063 295.292C31.685 292.756 27.139 290.964 27.139 290.964C27.139 290.964 34.7433 283.935 38.9587 283.687C43.1742 283.439 43.8354 284.817 45.3233 281.426Z" fill="#93A9D7"/>
<path d="M31.2995 267.533C20.995 277.843 10.6906 288.152 0.386155 298.462C-0.0822286 298.931 0.634123 299.675 1.13006 299.207C11.4345 288.897 21.7389 278.587 32.0434 268.277C32.5117 267.781 31.7678 267.064 31.2995 267.533Z" fill="#2A2769"/>
<path d="M108.334 455.564C107.26 455.977 108.004 474.97 108.004 474.97C108.004 474.97 140.405 475.715 146.797 475.577C153.189 475.439 151.866 475.66 151.866 475.66C151.866 475.66 155.779 473.895 153.547 469.237C151.315 464.578 145.86 463.806 141.314 462.786C136.768 461.794 135.087 458.127 130.982 457.604C126.877 457.08 127.951 461.656 127.951 461.656C127.951 461.656 117.619 461.27 114.451 458.431C111.282 455.619 111.778 454.24 108.334 455.564Z" fill="#6670A1"/>
<path d="M108.417 475.301C122.992 475.301 137.567 475.301 152.142 475.301C152.804 475.301 152.804 474.254 152.142 474.254C137.567 474.254 122.992 474.254 108.417 474.254C107.756 474.281 107.756 475.301 108.417 475.301Z" fill="#2A2769"/>
<path d="M161.152 216.287L169.004 211.793C169.252 211.38 169.472 211.022 169.638 210.718C173.495 204.378 156.964 181.911 156.964 181.911L118.115 201.484L113.294 212.648L107.37 251.93L143.959 256.754C143.959 256.754 156.137 234.591 163.907 220.725L161.152 216.287Z" fill="#424E8F"/>
<path d="M99.6008 204.213C94.8068 188.444 96.9834 174.082 112.633 165.564C128.282 157.046 133.738 160.354 136.796 147.536C139.882 134.717 144.152 125.538 154.567 123.884C165.009 122.23 166.414 121.513 176.14 117.709C185.866 113.905 195.344 121.265 195.096 129.094C194.848 136.923 191.542 142.85 182.532 141.196C173.523 139.542 167.599 141.83 164.513 148.942C161.427 156.054 162.392 152.029 159.526 150.127C156.688 148.225 153.134 150.844 154.071 154.152C155.008 157.46 159.306 159.307 159.554 161.209C159.802 163.111 161.427 163.414 155.972 172.897C150.517 182.38 156.909 182.159 155.972 191.642C155.035 201.125 139.606 220.339 124.921 219.622C110.291 218.933 102.025 212.207 99.6008 204.213Z" fill="#2A2769"/>
<path d="M510.676 463.282C510.648 463.255 510.621 463.227 510.565 463.172C510.538 463.117 510.51 463.089 510.455 463.034L460.366 406.716C459.209 407.047 458.079 407.35 457.473 407.405C455.875 407.543 454.58 410.189 451.714 410.961C448.877 411.733 449.786 408.728 449.786 408.728C449.786 408.728 448.904 410.685 447.251 409.776C445.598 408.866 446.81 407.185 446.81 407.185C446.81 407.185 445.543 408.756 444.027 408.232C442.512 407.681 443.559 405.2 443.559 405.2C443.559 405.2 443.173 406.247 441.272 406.109C439.371 405.972 439.344 403.408 442.402 399.907C444.496 397.509 448.078 396.02 450.172 395.331L387.188 324.513C386.389 323.631 385.011 323.548 384.102 324.32L368.921 337.827C368.039 338.627 367.957 340.005 368.728 340.915L376.828 350.012C377.655 348.578 379.473 348.11 380.079 348.192C380.851 348.303 381.154 349.819 381.512 349.819C381.898 349.819 383.11 350.976 383.11 350.976C383.11 350.976 383.303 351.611 384.047 351.445C384.791 351.252 385.728 352.823 385.976 355.36C386.113 356.876 386.031 358.888 385.92 360.266L491.94 479.464C491.968 479.491 492.023 479.547 492.051 479.574C492.078 479.602 492.106 479.657 492.133 479.684C494.144 481.945 499.903 480.098 504.972 475.549C510.18 471.029 512.659 465.543 510.676 463.282Z" fill="#5C65A4"/>
<path d="M360.876 313.458C360.573 313.734 360.077 313.707 359.801 313.403L357.349 310.647C357.074 310.343 357.101 309.847 357.404 309.572C357.707 309.296 358.203 309.324 358.479 309.627L360.931 312.383C361.234 312.687 361.207 313.155 360.876 313.458Z" fill="#2A2769"/>
<path d="M360.683 312.108L359.581 313.1L368.48 340.556C369.527 341.576 374.404 338.792 379.446 334.299C384.488 329.805 387.822 325.284 386.913 324.127L360.683 312.108Z" fill="#D0CCE6"/>
<path d="M127.538 257.802L135.143 255.679L143.987 256.727C143.987 256.727 159.333 340.915 160.987 357.454C162.64 374.022 129.026 453.413 129.026 453.413L110.566 450.657L121.036 363.547L118.005 273.956L127.538 257.802Z" fill="#2A2769"/>
<path d="M157.019 151.946C157.212 152.139 157.405 152.332 157.597 152.553C157.68 152.663 157.79 152.773 157.873 152.884C157.9 152.911 157.9 152.939 157.873 152.884C157.9 152.911 157.928 152.939 157.956 152.966C158.011 153.021 158.038 153.077 158.066 153.132C158.396 153.6 158.644 154.069 158.892 154.593C159.003 154.841 159.388 154.924 159.609 154.786C159.857 154.62 159.912 154.345 159.802 154.069C159.333 152.994 158.644 152.029 157.79 151.202C157.597 151.009 157.239 150.982 157.046 151.202C156.853 151.423 156.826 151.753 157.019 151.946Z" fill="#2A2769"/>
<path d="M170.823 174.937C174.129 175.185 177.463 174.606 180.521 173.31C181.926 172.704 183.276 171.932 184.378 170.857C185.37 169.892 186.197 168.762 186.858 167.521C188.263 164.875 188.897 161.87 189.255 158.921C189.668 155.502 189.613 152.084 189.503 148.638C189.365 144.752 189.117 140.865 189.255 136.978C189.282 136.316 188.235 136.316 188.208 136.978C187.96 143.676 188.897 150.375 188.401 157.074C188.18 160.023 187.712 163.028 186.555 165.785C185.453 168.376 183.717 170.526 181.21 171.849C178.069 173.503 174.377 174.165 170.823 173.889C170.161 173.862 170.161 174.882 170.823 174.937Z" fill="#2A2769"/>
<path d="M168.894 186.625C169.748 182.793 170.657 178.961 171.594 175.13C171.759 174.496 170.767 174.22 170.602 174.854C169.665 178.658 168.756 182.49 167.902 186.349C167.764 187.011 168.756 187.287 168.894 186.625Z" fill="#2A2769"/>
<path d="M154.65 176.591C157.57 175.295 160.849 176.949 162.833 179.127C163.962 180.34 164.816 181.773 165.588 183.234C166.442 184.806 167.213 186.432 168.012 188.031C171.346 194.785 174.625 201.566 178.179 208.21C180.163 211.931 182.257 215.597 184.488 219.181C184.847 219.732 185.728 219.236 185.37 218.657C181.265 212.069 177.683 205.205 174.239 198.258C172.531 194.812 170.823 191.339 169.114 187.893C168.288 186.211 167.461 184.53 166.607 182.904C165.808 181.387 164.927 179.926 163.824 178.631C161.483 175.929 157.625 174.137 154.154 175.681C153.906 175.791 153.851 176.177 153.961 176.398C154.071 176.673 154.374 176.701 154.65 176.591Z" fill="#2A2769"/>
<path d="M183.827 224.143C183.138 222.765 184.02 221.221 184.819 220.091C185.838 218.685 187.078 217.417 188.29 216.176C190.715 213.64 193.194 211.132 195.674 208.651C200.523 203.799 205.455 199.03 210.58 194.482C213.528 191.89 216.503 189.354 219.589 186.928C219.81 186.763 219.782 186.377 219.589 186.184C219.369 185.963 219.066 186.019 218.845 186.184C213.28 190.622 207.935 195.336 202.783 200.243C197.658 205.122 192.671 210.167 187.739 215.267C186.362 216.7 184.929 218.134 183.799 219.76C182.807 221.193 182.119 222.985 182.945 224.667C183.221 225.246 184.13 224.722 183.827 224.143Z" fill="#2A2769"/>
<path d="M219.534 186.901C222.51 184.42 226.836 185.219 230.39 184.806C232.401 184.585 234.357 184.117 236.314 183.648C236.947 183.483 237.884 183.124 238.518 183.51C239.179 183.924 238.821 184.833 238.407 185.274C237.774 185.936 236.809 186.377 235.955 186.708C234.963 187.094 233.917 187.369 232.87 187.535C232.594 187.562 232.429 187.921 232.511 188.169C232.594 188.472 232.87 188.582 233.145 188.527C234.192 188.389 235.211 188.114 236.176 187.728C237.085 187.369 237.994 186.928 238.766 186.322C239.482 185.771 239.978 184.944 239.868 184.006C239.758 183.041 239.014 182.435 238.049 182.352C237.085 182.27 236.093 182.656 235.156 182.876C234.054 183.152 232.925 183.4 231.823 183.593C230.693 183.786 229.563 183.896 228.434 183.951C227.304 184.006 226.202 184.006 225.072 184.061C222.813 184.199 220.554 184.695 218.763 186.184C218.295 186.598 219.038 187.342 219.534 186.901Z" fill="#2A2769"/>
<path d="M238.132 186.515C238.628 186.873 238.738 187.562 238.655 188.141C238.545 188.886 238.104 189.492 237.498 189.933C236.837 190.457 236.038 190.788 235.239 191.091C234.219 191.504 233.172 191.89 232.153 192.304C231.905 192.414 231.712 192.662 231.795 192.938C231.877 193.186 232.181 193.406 232.429 193.296C233.586 192.828 234.743 192.387 235.9 191.918C236.864 191.532 237.829 191.063 238.573 190.319C239.84 189.051 240.198 186.763 238.6 185.605C238.38 185.44 238.022 185.578 237.884 185.798C237.801 186.074 237.911 186.349 238.132 186.515Z" fill="#2A2769"/>
<path d="M237.801 190.677C238.324 191.256 238.517 192.111 238.269 192.855C238.021 193.599 237.36 194.151 236.726 194.537C235.046 195.557 233.145 196.273 231.299 196.88C230.665 197.073 230.941 198.093 231.574 197.872C232.731 197.514 233.861 197.073 234.963 196.577C235.927 196.163 236.919 195.695 237.773 195.06C238.545 194.482 239.206 193.71 239.371 192.717C239.537 191.697 239.234 190.705 238.545 189.933C238.104 189.464 237.36 190.209 237.801 190.677Z" fill="#2A2769"/>
<path d="M235.156 196.439C235.459 196.797 235.046 197.404 234.826 197.679C234.44 198.148 233.916 198.506 233.393 198.837C232.318 199.499 231.106 199.885 229.894 200.188C227.469 200.794 224.934 200.96 222.565 201.787C221.215 202.255 219.975 202.944 218.928 203.937C218.46 204.405 219.176 205.122 219.672 204.681C221.628 202.807 224.383 202.255 226.946 201.814C229.563 201.373 232.346 200.932 234.55 199.306C235.625 198.506 236.975 197.045 235.9 195.722C235.735 195.501 235.349 195.529 235.156 195.722C234.936 195.915 234.991 196.218 235.156 196.439Z" fill="#2A2769"/>
<path d="M153.851 204.599C156.964 210.36 160.105 216.121 163.632 221.635C167.103 227.093 170.96 232.358 175.396 237.099C177.6 239.47 180.356 242.144 183.855 241.951C184.516 241.924 184.516 240.876 183.855 240.904C180.879 241.069 178.51 238.836 176.581 236.851C174.377 234.536 172.31 232.082 170.382 229.546C166.525 224.474 163.136 219.043 159.967 213.53C158.176 210.415 156.44 207.245 154.732 204.075C154.429 203.496 153.52 204.02 153.851 204.599Z" fill="#2A2769"/>
<path d="M183.965 242.034C185.673 241.951 187.188 241.179 188.538 240.187C189.916 239.167 191.183 238.009 192.423 236.824C194.93 234.453 197.272 231.917 199.504 229.271C203.94 224.06 207.963 218.52 212.261 213.172C214.685 210.139 217.22 207.19 219.92 204.378C220.388 203.909 219.645 203.165 219.176 203.634C214.437 208.541 210.277 213.944 206.117 219.319C201.984 224.667 197.796 230.015 193.002 234.784C191.652 236.107 190.274 237.43 188.814 238.643C187.436 239.801 185.811 240.876 183.937 240.959C183.304 241.041 183.304 242.061 183.965 242.034Z" fill="#2A2769"/>
<path d="M110.814 450.74C110.676 452.09 110.483 453.413 110.346 454.764C110.318 455.04 110.594 455.288 110.869 455.288C111.172 455.288 111.365 455.04 111.393 454.764C111.53 453.413 111.723 452.09 111.861 450.74C111.889 450.464 111.613 450.216 111.338 450.216C111.034 450.216 110.842 450.464 110.814 450.74Z" fill="#2A2769"/>
<path d="M128.007 453.303C127.318 455.922 126.491 458.486 125.803 461.105C125.637 461.739 126.629 462.014 126.795 461.38C127.483 458.762 128.31 456.198 128.999 453.579C129.164 452.945 128.172 452.669 128.007 453.303Z" fill="#2A2769"/>
<path d="M29.2882 293.363C32.6219 296.891 35.9557 300.447 39.4548 303.81C40.1436 304.472 40.8324 305.161 41.6039 305.768C41.8243 305.933 42.1274 305.988 42.3478 305.768C42.5407 305.602 42.5682 305.216 42.3478 305.023C40.7222 303.755 39.2895 302.211 37.8568 300.778C35.9557 298.848 34.0822 296.919 32.2362 294.962C31.4923 294.19 30.776 293.418 30.0321 292.646C29.5637 292.15 28.8198 292.894 29.2882 293.363Z" fill="#2A2769"/>
<path d="M44.1108 283.714C46.866 286.471 49.6763 289.2 52.4866 291.902C52.955 292.37 53.6989 291.626 53.2305 291.157C50.4202 288.456 47.6375 285.727 44.8547 282.97C44.3588 282.529 43.6149 283.246 44.1108 283.714Z" fill="#2A2769"/>
<path d="M453.891 395.083C459.071 391.444 464.306 387.916 469.624 384.442C474.914 380.996 480.203 377.551 485.576 374.243C488.166 372.644 491.362 370.935 494.475 372.01C495.109 372.23 495.385 371.238 494.751 371.017C491.941 370.053 489.02 371.128 486.54 372.478C485.163 373.223 483.868 374.077 482.545 374.904C481.195 375.759 479.818 376.613 478.468 377.495C473.04 380.941 467.64 384.442 462.322 388.026C459.319 390.038 456.343 392.078 453.395 394.173C452.817 394.559 453.34 395.469 453.891 395.083Z" fill="#2A2769"/>
<path d="M453.478 394.118C450.199 394.311 447.003 395.496 444.358 397.481C443.036 398.474 441.879 399.604 440.914 400.927C440.391 401.616 439.895 402.36 439.647 403.187C439.426 403.877 439.289 404.897 439.619 405.586C440.033 406.385 441.08 406.606 441.906 406.495C442.815 406.385 443.642 405.944 444.331 405.338C444.827 404.896 444.11 404.18 443.587 404.593C443.091 405.007 442.457 405.365 441.823 405.448C441.355 405.531 440.556 405.475 440.446 404.897C440.336 404.207 440.556 403.408 440.859 402.829C441.19 402.195 441.631 401.589 442.071 401.037C443.835 398.859 446.149 397.178 448.767 396.158C450.254 395.579 451.852 395.221 453.45 395.138C454.139 395.11 454.139 394.063 453.478 394.118Z" fill="#2A2769"/>
<path d="M448.215 400.762C447.168 401.147 446.287 401.754 445.488 402.526C444.689 403.298 443.917 404.152 443.284 405.062C442.677 405.916 442.347 407.102 443.008 408.012C443.697 408.976 444.909 408.811 445.901 408.563C446.535 408.397 446.259 407.405 445.626 407.57C445.047 407.736 444 408.012 443.724 407.24C443.449 406.44 444.11 405.641 444.579 405.089C445.653 403.794 446.838 402.388 448.463 401.809C449.097 401.533 448.822 400.541 448.215 400.762Z" fill="#2A2769"/>
<path d="M450.089 403.546C449.207 404.152 448.408 404.814 447.664 405.558C447.306 405.916 446.948 406.302 446.617 406.716C446.287 407.102 445.901 407.515 445.736 408.011C445.46 408.783 445.873 409.803 446.617 410.134C447.389 410.492 448.436 410.41 449.207 410.079C449.455 409.969 449.51 409.583 449.4 409.362C449.235 409.087 448.959 409.059 448.684 409.169C448.408 409.28 448.05 409.307 447.747 409.307C447.499 409.307 447.196 409.307 447.003 409.169C446.81 409.059 446.7 408.783 446.672 408.563C446.645 408.315 446.838 408.094 447.031 407.846C448.05 406.523 449.262 405.393 450.64 404.455C451.163 404.069 450.64 403.16 450.089 403.546Z" fill="#2A2769"/>
<path d="M452.21 405.668C451.026 406.468 450.006 407.488 449.262 408.673C448.877 409.279 448.739 409.941 449.069 410.603C449.29 411.044 449.703 411.347 450.199 411.457C451.246 411.65 452.403 411.182 453.312 410.685C454.359 410.134 455.269 409.417 456.233 408.756C457.28 408.039 458.41 407.377 459.705 407.295C460.366 407.267 460.366 406.22 459.705 406.247C457.528 406.385 455.847 407.763 454.111 408.949C453.257 409.528 452.376 410.079 451.384 410.327C451.053 410.41 450.667 410.492 450.309 410.41C449.979 410.299 449.786 409.886 449.896 409.555C450.006 409.252 450.254 408.949 450.42 408.701C450.612 408.425 450.833 408.177 451.053 407.929C451.549 407.405 452.073 406.936 452.679 406.55C453.285 406.192 452.761 405.282 452.21 405.668Z" fill="#2A2769"/>
<path d="M460.283 407.295C463.396 406.633 466.317 405.31 469.045 403.656C472.075 401.837 474.968 399.797 477.916 397.812C483.978 393.732 489.984 389.597 495.935 385.407C499.297 383.064 502.63 380.666 505.964 378.295C506.185 378.13 506.295 377.854 506.157 377.578C506.019 377.358 505.689 377.22 505.441 377.385C499.545 381.63 493.621 385.793 487.67 389.9C484.667 391.968 481.663 394.035 478.633 396.075C475.685 398.06 472.764 400.072 469.761 402.002C466.73 403.932 463.534 405.531 460.035 406.275C459.346 406.44 459.622 407.433 460.283 407.295Z" fill="#2A2769"/>
<path d="M502.465 360.018C504.008 364.622 505.193 369.308 506.019 374.077C506.13 374.711 506.267 375.345 506.295 376.007C506.295 376.448 506.212 377.082 505.716 377.247C505.083 377.468 505.358 378.46 505.992 378.24C507.149 377.826 507.424 376.586 507.287 375.483C507.121 374.188 506.873 372.919 506.625 371.651C506.13 369.088 505.523 366.524 504.807 364.016C504.394 362.582 503.953 361.149 503.485 359.715C503.264 359.109 502.245 359.384 502.465 360.018Z" fill="#2A2769"/>
<path d="M486.403 366.579C486.678 368.371 486.788 370.19 487.091 371.982C487.146 372.258 487.477 372.423 487.725 372.34C488.028 372.258 488.138 371.982 488.083 371.706C487.808 369.915 487.698 368.095 487.394 366.303C487.339 366.028 487.009 365.862 486.761 365.945C486.485 366.028 486.375 366.303 486.403 366.579Z" fill="#2A2769"/>
<path d="M473.536 334.326C474.583 338.847 475.685 343.341 476.787 347.834C477.861 352.19 478.963 356.545 480.038 360.901C480.672 363.464 481.278 366.056 481.884 368.647C482.022 369.308 483.041 369.033 482.876 368.371C481.829 363.85 480.727 359.357 479.625 354.864C478.55 350.508 477.448 346.153 476.373 341.797C475.74 339.233 475.134 336.642 474.527 334.051C474.362 333.389 473.37 333.665 473.536 334.326Z" fill="#2A2769"/>
<path d="M362.777 430.561C362.777 434.586 362.722 438.583 362.667 442.607C362.612 446.935 362.557 451.263 362.612 455.591C362.639 457.742 362.667 459.892 362.777 462.042C362.805 462.703 363.852 462.703 363.824 462.042C363.631 458.045 363.604 454.02 363.631 449.995C363.659 445.667 363.741 441.339 363.769 436.984C363.796 434.834 363.824 432.684 363.796 430.533C363.796 429.899 362.777 429.899 362.777 430.561Z" fill="#2A2769"/>
<path d="M383.082 431.829C382.118 438.776 381.264 445.75 380.493 452.752C380.272 454.737 380.052 456.722 379.859 458.679C379.831 458.954 380.107 459.203 380.382 459.203C380.685 459.203 380.878 458.954 380.906 458.679C381.622 451.76 382.421 444.84 383.33 437.949C383.578 435.992 383.854 434.062 384.102 432.105C384.129 431.829 384.047 431.553 383.744 431.471C383.468 431.415 383.11 431.553 383.082 431.829Z" fill="#2A2769"/>
<path d="M505.22 457.466C509.05 456.198 512.825 454.764 516.544 453.221C517.536 452.807 518.5 452.394 519.465 451.925C520.071 451.649 519.547 450.767 518.941 451.043C515.387 452.697 511.695 454.103 508.003 455.426C506.984 455.784 505.964 456.143 504.945 456.473C504.311 456.666 504.587 457.659 505.22 457.466Z" fill="#2A2769"/>
<path d="M491.748 442.966C497.892 441.45 504.063 439.961 510.207 438.445C511.916 438.031 513.596 437.618 515.304 437.204C515.938 437.039 515.69 436.047 515.029 436.212C508.885 437.728 502.713 439.217 496.569 440.733C494.861 441.146 493.18 441.56 491.472 441.973C490.838 442.139 491.114 443.131 491.748 442.966Z" fill="#2A2769"/>
<path d="M215.374 189.464C216.724 184.53 218.074 179.596 219.452 174.689C220.829 169.782 222.207 164.903 223.612 160.023C225.017 155.117 226.45 150.21 227.91 145.303C229.343 140.396 230.831 135.517 232.291 130.61C233.779 125.731 235.266 120.879 236.782 116.027C236.975 115.421 237.167 114.787 237.36 114.18C237.553 113.546 236.561 113.271 236.368 113.905C234.853 118.784 233.338 123.663 231.85 128.542C230.362 133.394 228.902 138.273 227.469 143.153C226.009 148.06 224.576 152.966 223.171 157.873C221.766 162.78 220.361 167.687 218.983 172.621C217.606 177.528 216.256 182.407 214.933 187.314C214.768 187.948 214.602 188.555 214.437 189.189C214.189 189.823 215.209 190.098 215.374 189.464Z" fill="#2A2769"/>
<path d="M190.77 285.947C191.541 281.564 192.368 277.209 193.277 272.853C194.186 268.498 195.123 264.17 196.143 259.842C197.162 255.486 198.236 251.158 199.394 246.858C200.523 242.557 201.736 238.285 202.975 234.039C204.243 229.767 205.565 225.549 206.915 221.304C207.081 220.78 207.274 220.256 207.439 219.732C207.659 219.098 206.64 218.823 206.447 219.457C205.042 223.674 203.719 227.92 202.452 232.165C201.185 236.41 199.972 240.683 198.815 244.983C197.658 249.284 196.556 253.612 195.509 257.967C194.489 262.295 193.498 266.623 192.588 270.979C191.679 275.334 190.825 279.69 190.026 284.045C189.916 284.596 189.833 285.148 189.723 285.672C189.668 286.333 190.66 286.609 190.77 285.947Z" fill="#2A2769"/>
<path d="M207.825 292.425C235.928 292.425 264.031 292.425 292.106 292.425C320.071 292.425 348.009 292.425 375.974 292.425C391.734 292.425 407.521 292.425 423.281 292.425C423.942 292.425 423.942 291.378 423.281 291.378C395.178 291.378 367.075 291.378 339 291.378C311.034 291.378 283.097 291.378 255.131 291.378C239.372 291.378 223.584 291.378 207.825 291.378C207.136 291.378 207.136 292.425 207.825 292.425Z" fill="#2A2769"/>
<path d="M474.941 115.311C473.425 123.829 471.855 132.319 470.229 140.81C468.631 149.162 467.006 157.542 465.325 165.868C463.644 174.22 461.936 182.573 460.2 190.925C458.437 199.306 456.646 207.658 454.828 216.011C452.982 224.446 451.136 232.854 449.235 241.289C449.014 242.337 448.766 243.357 448.518 244.404C448.381 245.066 449.373 245.342 449.51 244.68C451.411 236.245 453.285 227.809 455.131 219.374C456.949 211.049 458.74 202.724 460.504 194.399C462.267 186.046 463.975 177.694 465.656 169.341C467.336 160.961 468.99 152.58 470.588 144.173C472.213 135.71 473.784 127.219 475.326 118.729C475.519 117.681 475.712 116.634 475.905 115.586C476.07 114.925 475.051 114.649 474.941 115.311Z" fill="#2A2769"/>
<path d="M189.833 286.747C189.503 289.338 191.872 291.323 194.131 291.929C195.481 292.288 196.887 292.315 198.264 292.343C199.807 292.37 201.378 292.398 202.92 292.425C204.711 292.453 206.475 292.48 208.266 292.508C208.927 292.508 208.927 291.488 208.266 291.461C205.345 291.405 202.425 291.35 199.504 291.323C197.107 291.295 194.131 291.516 192.203 289.834C191.294 289.062 190.715 287.96 190.88 286.774C190.908 286.499 190.605 286.25 190.357 286.25C190.054 286.223 189.861 286.471 189.833 286.747Z" fill="#2A2769"/>
<path d="M388.731 159.61C388.814 163.607 391.293 167.025 394.682 169.038C398.705 171.436 403.526 171.436 407.962 170.388C412.481 169.341 417.495 167.439 420.994 164.296C423.942 161.65 425.926 157.212 424.218 153.325C422.73 149.906 418.515 148.004 415.016 149.328C411.544 150.623 409.45 154.4 410.332 158.039C411.241 161.843 414.85 164.517 418.294 165.923C422.455 167.604 427.221 167.99 431.629 167.384C436.644 166.667 441.961 164.599 445.571 160.933C448.629 157.846 450.062 152.58 446.59 149.19C446.122 148.721 445.378 149.465 445.846 149.934C448.96 152.994 447.417 157.68 444.662 160.354C441.906 163.056 438.104 164.82 434.412 165.785C427.607 167.549 418.487 166.915 413.418 161.484C410.828 158.7 410.194 154.51 413.142 151.698C415.815 149.135 420.085 149.493 422.427 152.332C425.21 155.723 423.419 160.547 420.581 163.249C417.798 165.895 413.914 167.466 410.332 168.624C405.896 170.058 400.799 170.802 396.446 168.762C392.809 167.08 389.861 163.717 389.778 159.582C389.75 158.948 388.703 158.948 388.731 159.61Z" fill="#EA8461"/>
<path d="M255.71 252.371C264.224 257.113 274.804 257.168 283.62 253.115C292.244 249.173 301.584 239.112 298.195 228.857C296.79 224.639 293.043 220.78 288.332 220.89C284.309 220.973 280.121 223.95 279.708 228.14C279.184 233.433 284.144 237.706 288.552 239.553C293.429 241.62 298.994 241.51 303.871 239.47C308.968 237.347 313.679 233.102 315.911 228.03C317.757 223.812 318.143 218.134 313.982 215.156C313.431 214.77 312.935 215.653 313.459 216.039C317.096 218.657 316.6 223.84 315.002 227.506C313.239 231.586 309.739 235.087 305.91 237.32C301.777 239.718 296.873 240.655 292.161 239.635C287.505 238.643 282.325 235.556 280.948 230.704C279.625 226.1 283.703 222.158 288.139 221.938C292.74 221.717 296.322 225.742 297.396 229.905C299.876 239.332 291.417 248.264 283.593 252.013C275.024 256.12 264.554 256.148 256.206 251.489C255.627 251.158 255.131 252.04 255.71 252.371Z" fill="#C7508E"/>
<path d="M428.736 369.997C428.957 362.995 428.929 355.993 429.232 348.992C429.563 341.935 430.197 334.85 431.96 327.986C432.897 324.32 434.136 320.736 435.872 317.373C436.175 316.794 435.294 316.27 434.991 316.849C431.822 323.052 430.197 329.888 429.26 336.752C428.295 343.919 428.075 351.169 427.937 358.364C427.882 362.251 427.827 366.11 427.717 369.997C427.689 370.659 428.736 370.659 428.736 369.997Z" fill="#2A2769"/>
<path d="M431.189 260.558C431.409 266.127 431.574 271.695 432.043 277.236C432.263 279.855 432.566 282.474 433.117 285.037C433.723 287.739 434.798 290.468 437.222 292.039C439.95 293.804 443.422 293.638 446.507 293.445C447.169 293.39 447.169 292.37 446.507 292.398C443.862 292.563 440.914 292.756 438.462 291.543C435.983 290.303 434.853 287.794 434.219 285.23C433.613 282.777 433.338 280.213 433.117 277.705C432.869 274.893 432.704 272.081 432.566 269.269C432.428 266.375 432.346 263.453 432.208 260.558C432.18 259.897 431.161 259.897 431.189 260.558Z" fill="#2A2769"/>
<path d="M463.342 272.247C465.16 271.888 466.262 270.372 467.474 269.132C468.081 268.497 468.797 267.863 469.651 267.615C470.478 267.367 471.277 267.588 471.965 268.056C473.343 268.994 474.28 270.703 474.5 272.329C474.721 274.011 474.115 275.61 472.82 276.712C471.166 278.118 468.852 278.311 466.786 277.898C466.124 277.76 465.849 278.752 466.51 278.89C468.632 279.331 470.946 279.193 472.792 277.98C474.445 276.905 475.52 275.169 475.547 273.184C475.63 269.6 471.993 264.583 468.108 267.174C467.171 267.808 466.455 268.663 465.684 269.49C464.94 270.262 464.141 271.006 463.039 271.227C462.432 271.364 462.708 272.384 463.342 272.247Z" fill="#2A2769"/>
<path d="M443.945 293.501C444.551 294.465 444.634 295.623 444.716 296.753C444.771 297.608 444.854 298.435 444.964 299.29C445.102 300.613 444.799 301.743 444.551 303.066C444.441 303.728 445.433 304.003 445.543 303.342C445.791 301.963 446.122 300.64 445.984 299.234C445.874 298.297 445.791 297.36 445.736 296.423C445.653 295.237 445.488 294.024 444.827 292.977C444.496 292.425 443.587 292.949 443.945 293.501Z" fill="#2A2769"/>
<path d="M466.014 278.394C465.766 284.486 465.601 290.578 465.684 296.671C465.711 298.628 465.739 300.557 465.794 302.515C465.821 303.176 466.841 303.176 466.841 302.515C466.703 296.422 466.676 290.33 466.868 284.238C466.923 282.281 467.006 280.351 467.089 278.394C467.089 277.732 466.042 277.732 466.014 278.394Z" fill="#2A2769"/>
<path d="M431.684 265.024C431.546 265.906 427.91 260.2 427.662 255.707C427.386 251.241 428.764 250.552 427.937 248.346C427.111 246.141 429.756 237.871 436.506 235.335C443.228 232.771 458.768 232.826 464.581 236.658C464.581 236.658 475.685 234.536 477.228 244.542C478.77 254.549 472.847 268.112 472.847 268.112C472.847 268.112 470.174 265.824 467.777 268.112C465.408 270.4 463.617 272.357 462.653 272.054C461.688 271.75 460.999 269.352 460.228 261.964C459.457 254.576 454.387 254.687 452.238 254.687C450.089 254.687 446.397 257.223 443.366 256.92C440.335 256.616 439.592 255.1 437.47 255.734C435.404 256.341 432.952 256.754 431.684 265.024Z" fill="#2A2769"/>
<path d="M504.752 358.778C498.305 359.467 492.491 362.554 486.981 365.807C485.411 366.745 483.84 367.682 482.27 368.619C481.691 368.95 482.215 369.86 482.793 369.501C488.221 366.303 493.593 362.747 499.655 360.873C501.308 360.349 503.016 359.991 504.752 359.798C505.027 359.77 505.275 359.577 505.275 359.274C505.248 359.026 505.027 358.75 504.752 358.778Z" fill="#2A2769"/>
<path d="M512.577 430.533C513.045 429.32 536.685 430.147 536.685 430.147C536.685 430.147 537.512 466.508 537.346 473.675C537.181 480.842 537.429 479.354 537.429 479.354C537.429 479.354 533.076 483.737 527.868 481.256C522.661 478.775 521.779 472.655 520.65 467.528C519.52 462.428 515.387 463.007 514.809 458.403C514.23 453.799 519.382 452.531 519.382 452.531C519.382 452.531 518.941 440.926 515.773 437.397C512.632 433.841 511.089 434.393 512.577 430.533Z" fill="#2A2769"/>
<path d="M534.646 430.616C534.646 446.963 534.646 463.31 534.646 479.657C534.646 480.319 533.599 480.319 533.599 479.657C533.599 463.31 533.599 446.963 533.599 430.616C533.599 429.955 534.646 429.955 534.646 430.616Z" fill="white"/>
<path d="M521.008 470.836C521.917 468.465 523.818 466.811 526.077 465.736C527.345 465.129 528.695 464.688 530.072 464.275C531.34 463.889 532.607 463.503 533.874 464.027C534.481 464.275 534.205 465.267 533.599 465.019C532.359 464.523 531.092 465.019 529.879 465.405C528.777 465.763 527.648 466.122 526.601 466.618C524.589 467.555 522.799 468.989 522 471.111C521.752 471.718 520.76 471.47 521.008 470.836Z" fill="white"/>
<path d="M518.335 462.455C519.437 459.919 521.008 457.686 522.991 455.757C523.46 455.288 524.204 456.033 523.735 456.501C521.807 458.376 520.319 460.553 519.244 463.007C518.969 463.586 518.06 463.062 518.335 462.455Z" fill="white"/>
<path d="M525.113 459.726C523.102 461.601 521.587 463.834 520.622 466.397C520.402 467.004 519.382 466.756 519.63 466.122C520.65 463.393 522.248 460.967 524.369 458.982C524.893 458.541 525.609 459.258 525.113 459.726Z" fill="white"/>
<path d="M386.306 454.764C387.601 455.26 386.692 480.567 386.692 480.567C386.692 480.567 347.816 481.449 340.157 481.283C332.497 481.118 334.095 481.366 334.095 481.366C334.095 481.366 329.412 476.707 332.057 471.111C334.702 465.515 341.259 464.578 346.714 463.393C352.169 462.207 351.563 457.769 356.468 457.135C361.399 456.501 362.749 462.042 362.749 462.042C362.749 462.042 375.148 461.573 378.95 458.183C382.752 454.819 382.174 453.165 386.306 454.764Z" fill="#424E8F"/>
<path d="M386.224 478.361C368.756 478.361 351.26 478.361 333.792 478.361C333.131 478.361 333.131 477.314 333.792 477.314C351.26 477.314 368.756 477.314 386.224 477.314C386.885 477.314 386.885 478.361 386.224 478.361Z" fill="#2A2769"/>
<path d="M343.187 463.834C345.777 464.826 347.541 466.921 348.698 469.375C349.331 470.725 349.772 472.131 350.186 473.537C350.599 474.888 351.012 476.211 350.434 477.562C350.186 478.168 349.194 477.893 349.442 477.286C349.993 475.963 349.442 474.64 349.056 473.344C348.698 472.159 348.312 471.001 347.789 469.871C346.769 467.665 345.226 465.681 342.912 464.799C342.306 464.606 342.581 463.586 343.187 463.834Z" fill="#2A2769"/>
<path d="M352.142 460.967C354.842 462.152 357.239 463.834 359.305 465.956C359.774 466.425 359.03 467.169 358.561 466.701C356.55 464.633 354.236 463.034 351.618 461.877C351.012 461.601 351.563 460.719 352.142 460.967Z" fill="#2A2769"/>
<path d="M355.117 468.189C353.106 466.039 350.709 464.413 347.954 463.393C347.348 463.172 347.596 462.152 348.229 462.4C351.15 463.503 353.712 465.184 355.861 467.472C356.302 467.941 355.558 468.685 355.117 468.189Z" fill="#2A2769"/>
<path d="M388.731 363.133C385.865 362.803 383.165 361.452 381.099 359.439C380.107 358.475 379.253 357.4 378.536 356.187C377.765 354.863 377.076 353.32 377.131 351.776C377.159 350.921 377.434 350.094 378.041 349.488C378.536 348.964 379.28 348.606 380.024 348.716C380.3 348.771 380.575 348.633 380.658 348.358C380.741 348.11 380.575 347.751 380.3 347.724C378.592 347.476 377.021 348.606 376.415 350.177C375.699 351.969 376.277 353.981 377.076 355.635C378.426 358.475 380.686 360.9 383.413 362.444C385.066 363.381 386.857 363.96 388.758 364.181C389.034 364.208 389.282 363.933 389.282 363.657C389.254 363.326 389.006 363.161 388.731 363.133Z" fill="#2A2769"/>
<path d="M386.747 360.432C386.637 359.053 386.554 357.675 386.444 356.297C386.389 355.608 386.334 354.891 386.306 354.202C386.279 353.733 386.224 353.237 386.086 352.768C385.81 351.776 385.039 350.949 383.909 351.142C382.78 351.335 382.008 352.437 381.595 353.402C381.016 354.698 380.851 356.104 381.071 357.51C381.099 357.785 381.457 357.951 381.705 357.868C382.008 357.785 382.118 357.51 382.063 357.234C381.925 356.242 382.036 355.222 382.339 354.284C382.614 353.512 383.11 352.382 383.992 352.162C384.763 351.941 385.066 352.851 385.177 353.43C385.37 354.422 385.342 355.47 385.425 356.49C385.507 357.785 385.618 359.109 385.7 360.404C385.755 361.066 386.802 361.093 386.747 360.432Z" fill="#2A2769"/>
<path d="M383.661 351.859C383.772 351.197 383.551 350.591 383.083 350.122C382.642 349.708 382.008 349.46 381.402 349.515C380.052 349.681 379.143 350.839 378.84 352.079C378.647 352.906 378.675 353.761 378.702 354.615C378.702 354.891 378.923 355.139 379.226 355.139C379.501 355.139 379.749 354.891 379.749 354.615C379.694 353.347 379.611 351.831 380.686 350.894C381.072 350.563 381.568 350.425 382.008 350.618C382.174 350.701 382.394 350.839 382.504 351.004C382.587 351.114 382.642 351.197 382.67 351.307C382.697 351.418 382.697 351.5 382.697 351.583C382.642 351.859 382.78 352.134 383.055 352.217C383.276 352.272 383.606 352.134 383.661 351.859Z" fill="#2A2769"/>
<path d="M381.678 350.232C381.843 349.681 381.705 349.047 381.402 348.578C381.237 348.33 381.016 348.11 380.768 347.944C380.493 347.779 380.217 347.696 379.887 347.641C379.776 347.613 379.611 347.696 379.528 347.779C379.446 347.862 379.363 348.027 379.391 348.137C379.391 348.275 379.446 348.413 379.528 348.496C379.639 348.606 379.749 348.633 379.887 348.633C379.694 348.606 379.887 348.633 379.914 348.661C379.969 348.661 380.024 348.689 380.052 348.716C380.135 348.744 379.942 348.661 380.024 348.716C380.052 348.716 380.079 348.744 380.079 348.744C380.135 348.771 380.162 348.799 380.217 348.826C380.245 348.854 380.245 348.854 380.272 348.882C380.162 348.799 380.217 348.826 380.245 348.854C380.272 348.882 380.327 348.909 380.355 348.964C380.383 348.992 380.438 349.047 380.465 349.075C380.52 349.157 380.383 348.964 380.438 349.047C380.465 349.074 380.465 349.102 380.493 349.102C380.52 349.157 380.548 349.185 380.575 349.24C380.603 349.295 380.658 349.433 380.603 349.267C380.631 349.378 380.658 349.46 380.686 349.571C380.686 349.598 380.713 349.626 380.686 349.653C380.686 349.626 380.686 349.598 380.686 349.571C380.686 349.598 380.686 349.598 380.686 349.626C380.686 349.681 380.686 349.709 380.686 349.764C380.686 349.791 380.686 349.819 380.686 349.846C380.686 349.874 380.686 349.957 380.686 349.874C380.686 349.764 380.686 349.874 380.686 349.902C380.686 349.929 380.686 349.957 380.658 349.984C380.575 350.232 380.741 350.563 381.016 350.618C381.319 350.646 381.595 350.508 381.678 350.232Z" fill="#2A2769"/>
<path d="M235.817 115.476H475.96C475.96 115.476 476.87 111.093 478.192 105.194C481.03 92.2375 478.247 92.2375 465.243 92.2375C437.856 92.2375 269.596 92.2375 258.796 92.2375C247.995 92.2375 242.347 96.9514 239.702 103.871C237.636 109.301 235.817 115.476 235.817 115.476Z" fill="#9EB6DF"/>
<path d="M283.593 116.551C299.628 116.551 315.636 116.551 331.671 116.551C347.624 116.551 363.549 116.551 379.501 116.551C388.483 116.551 397.493 116.551 406.475 116.551C407.136 116.551 407.136 115.504 406.475 115.504C390.439 115.504 374.432 115.504 358.396 115.504C342.444 115.504 326.519 115.504 310.566 115.504C301.584 115.504 292.575 115.504 283.593 115.504C282.904 115.504 282.904 116.551 283.593 116.551Z" fill="#2A2769"/>
<path d="M315.277 92.2926C330.045 92.2926 344.813 92.2926 359.581 92.2926C374.266 92.2926 388.951 92.2926 403.664 92.2926C411.957 92.2926 420.25 92.2926 428.516 92.2926C429.177 92.2926 429.177 91.2451 428.516 91.2451C413.748 91.2451 398.98 91.2451 384.212 91.2451C369.527 91.2451 354.842 91.2451 340.129 91.2451C331.836 91.2451 323.543 91.2451 315.277 91.2451C314.589 91.2451 314.589 92.2926 315.277 92.2926Z" fill="#2A2769"/>
<path d="M58.3827 79.9979C73.1505 79.9979 87.9184 79.9979 102.686 79.9979C117.371 79.9979 132.057 79.9979 146.769 79.9979C155.062 79.9979 163.356 79.9979 171.621 79.9979C172.282 79.9979 172.282 78.9504 171.621 78.9504C156.853 78.9504 142.086 78.9504 127.318 78.9504C112.632 78.9504 97.9473 78.9504 83.2345 78.9504C74.9414 78.9504 66.6482 78.9504 58.3827 78.9504C57.7214 78.9779 57.7214 79.9979 58.3827 79.9979Z" fill="#2A2769"/>
<path d="M56.4544 107.537C71.2223 107.537 85.9901 107.537 100.758 107.537C115.443 107.537 130.128 107.537 144.841 107.537C153.134 107.537 161.427 107.537 169.693 107.537C170.354 107.537 170.354 106.489 169.693 106.489C154.925 106.489 140.157 106.489 125.389 106.489C110.704 106.489 96.0191 106.489 81.3063 106.489C73.0132 106.489 64.72 106.489 56.4544 106.489C55.7932 106.517 55.7932 107.537 56.4544 107.537Z" fill="#2A2769"/>
<path d="M107.398 251.93L139.221 256.258C139.221 256.258 143.271 315.609 144.538 333.086C145.833 350.536 140.874 359.743 135.721 363.767C130.569 367.82 115.333 373.884 96.2394 358.447C77.1459 343.01 40.5845 304.775 40.5845 304.775L53.0655 290.634L110.291 331.873C110.291 331.873 95.6884 288.318 96.2394 273.708C96.7905 259.097 107.398 251.93 107.398 251.93Z" fill="#EA8461"/>
<path d="M258.3 99.7357C253.726 99.5427 252.046 103.126 252.128 105.525C252.211 107.923 254.691 108.64 257.804 108.502C260.917 108.364 263.067 106.352 263.204 103.843C263.342 101.335 261.606 99.8735 258.3 99.7357Z" fill="white"/>
<path d="M275.244 99.7357C270.671 99.5427 268.99 103.126 269.073 105.525C269.155 107.923 271.635 108.64 274.748 108.502C277.862 108.364 280.011 106.352 280.149 103.843C280.314 101.335 278.551 99.8735 275.244 99.7357Z" fill="white"/>
<path d="M292.189 99.7357C287.616 99.5427 285.935 103.126 286.018 105.525C286.1 107.923 288.58 108.64 291.693 108.502C294.807 108.364 296.956 106.352 297.093 103.843C297.259 101.335 295.495 99.8735 292.189 99.7357Z" fill="white"/>
<path d="M258.328 99.5421C255.159 99.5421 252.514 101.306 251.908 103.815C251.577 105.193 251.77 106.434 252.487 107.316C253.313 108.363 254.773 108.887 256.812 108.887C261.331 108.887 263.315 106.186 263.563 104.366C263.728 103.181 263.37 101.94 262.626 101.086C261.689 100.066 260.256 99.5421 258.328 99.5421ZM262.874 104.283C262.681 105.8 260.862 108.198 256.812 108.198C254.994 108.198 253.727 107.757 253.038 106.875C252.266 105.91 252.432 104.642 252.597 103.953C253.12 101.775 255.545 100.204 258.355 100.204C260.063 100.204 261.331 100.645 262.102 101.527C263.012 102.602 262.929 103.898 262.874 104.283Z" fill="#C7508E"/>
<path d="M268.852 103.816C268.522 105.194 268.715 106.434 269.431 107.316C270.258 108.364 271.718 108.888 273.757 108.888C278.275 108.888 280.259 106.186 280.507 104.367C280.672 103.181 280.314 101.941 279.57 101.086C278.661 100.039 277.228 99.5151 275.3 99.5151C272.104 99.5427 269.486 101.279 268.852 103.816ZM279.047 101.555C279.956 102.603 279.873 103.898 279.818 104.284C279.625 105.8 277.807 108.199 273.757 108.199C271.938 108.199 270.671 107.758 269.982 106.875C269.211 105.911 269.376 104.643 269.541 103.953C270.065 101.776 272.489 100.204 275.3 100.204C277.008 100.232 278.275 100.673 279.047 101.555Z" fill="#334FA2"/>
<path d="M290.701 108.888C295.22 108.888 297.204 106.186 297.451 104.367C297.617 103.181 297.259 101.941 296.515 101.086C295.606 100.039 294.173 99.5151 292.244 99.5151C289.076 99.5151 286.431 101.279 285.825 103.788C285.494 105.166 285.687 106.407 286.403 107.289C287.202 108.364 288.662 108.888 290.701 108.888ZM286.486 103.981C287.009 101.803 289.434 100.232 292.244 100.232C293.952 100.232 295.22 100.673 295.991 101.555C296.9 102.603 296.818 103.898 296.763 104.284C296.57 105.8 294.751 108.199 290.701 108.199C288.883 108.199 287.615 107.758 286.927 106.875C286.155 105.911 286.321 104.643 286.486 103.981Z" fill="#EA8461"/>
<path d="M467.281 274.314C467.86 272.302 469.596 270.758 471.634 270.372C471.91 270.317 472.075 269.986 471.993 269.738C471.91 269.462 471.634 269.325 471.359 269.38C468.962 269.821 466.951 271.723 466.289 274.038C466.097 274.672 467.088 274.948 467.281 274.314Z" fill="#2A2769"/>
<path d="M246.894 446.522L320.871 447.432C321.89 447.432 322.827 447.955 323.405 448.81L325.582 452.008C326.657 453.607 325.527 455.757 323.598 455.757L245.268 455.619L246.894 446.522Z" fill="#9EB6DF"/>
<path d="M168.839 408.508L245.185 407.212C247.445 407.185 249.566 408.343 250.751 410.245L278.854 455.785L198.154 455.509C195.95 455.509 193.884 454.379 192.671 452.504L166.69 412.478C165.615 410.796 166.8 408.536 168.839 408.508Z" fill="#9EB6DF"/>
<path d="M250.751 410.244C249.566 408.315 247.444 407.157 245.185 407.212L243.505 407.24C243.339 409.721 242.678 411.981 241.218 413.883C236.727 419.727 228.764 416.53 223.171 422.732C217 429.568 223.199 437.232 217.716 443.572C211.93 450.271 202.011 445.337 190.963 449.885L192.671 452.531C193.883 454.378 195.95 455.509 198.154 455.536L278.854 455.812L250.751 410.244Z" fill="#8FABD9"/>
<path d="M107.866 282.584C115.939 280.048 122.799 274.562 127.042 267.23C127.373 266.651 126.464 266.154 126.133 266.733C122.028 273.818 115.388 279.138 107.591 281.592C106.929 281.785 107.232 282.777 107.866 282.584Z" fill="#2A2769"/>
<path d="M221.904 93.2575C221.904 96.979 220.389 100.342 217.936 102.796C215.484 105.249 212.123 106.765 208.403 106.765H49.2908C41.8793 106.765 35.8179 100.7 35.8179 93.2851C35.8179 89.5636 37.3332 86.2005 39.7854 83.7471C42.2375 81.2937 45.5988 79.7775 49.3183 79.7775H208.458C215.842 79.7499 221.904 85.8421 221.904 93.2575Z" fill="#9EB6DF"/>
<path d="M221.904 93.2575C221.904 96.979 220.388 100.342 217.936 102.796C215.484 105.249 212.123 106.765 208.403 106.765H182.449V79.7775H208.403C215.842 79.7499 221.904 85.8421 221.904 93.2575Z" fill="#334FA2"/>
<path d="M205.097 97.6129C204.794 97.6129 204.491 97.5853 204.188 97.5577C202.617 97.3096 201.212 96.4826 200.248 95.187C198.291 92.5406 198.842 88.764 201.487 86.8068C204.132 84.8496 207.907 85.4009 209.863 88.0473C211.819 90.6937 211.268 94.4703 208.623 96.4275C207.604 97.1994 206.364 97.6129 205.097 97.6129ZM202.094 87.6062C199.889 89.2602 199.421 92.4028 201.047 94.6081C201.846 95.6832 203.003 96.3724 204.325 96.5929C205.648 96.7859 206.97 96.4551 208.045 95.6556C210.249 94.0017 210.717 90.8591 209.092 88.6538C207.466 86.4209 204.325 85.9522 202.094 87.6062Z" fill="white"/>
<path d="M200.967 95.2868L200.377 94.4892L193.8 99.3606L194.391 100.158L200.967 95.2868Z" fill="white"/>
<path d="M191.817 101.444C191.514 101.059 191.596 100.507 192.01 100.204L195.867 97.3371C196.253 97.0339 196.804 97.1166 197.107 97.5301C197.41 97.916 197.327 98.4673 196.914 98.7705L193.057 101.637C192.643 101.913 192.092 101.83 191.817 101.444Z" fill="white"/>
<path d="M322.799 65.0011V56.7863L345.887 47.5791V55.7939L330.706 60.8661L345.887 65.9384V74.2083L322.799 65.0011Z" fill="#9EB6DF"/>
<path d="M353.52 65.9666L368.701 60.8944L353.52 55.8221V47.5522L376.608 56.7594V64.9742L353.52 74.1814V65.9666Z" fill="#9EB6DF"/>
<path d="M156.468 162.808C161.139 162.808 164.926 159.019 164.926 154.345C164.926 149.671 161.139 145.882 156.468 145.882C151.796 145.882 148.009 149.671 148.009 154.345C148.009 159.019 151.796 162.808 156.468 162.808Z" fill="#C7508E"/>
<path d="M153.492 149.576C153.492 149.576 150.737 122.175 160.298 117.985C169.831 113.794 171.622 119.501 171.622 119.501C171.622 119.501 158.369 113.546 157.901 148.997L153.492 149.576Z" fill="#C7508E"/>
<path d="M87.6157 132.374H48.6572V169.865H87.6157V132.374Z" fill="#EA8461"/>
<path d="M242.871 246.169H179.226V283.659H242.871V246.169Z" fill="#C7508E"/>
<path d="M65.7667 152.002C65.7667 154.703 65.133 156.743 63.8932 158.177C62.6533 159.61 60.8349 160.327 58.4654 160.327C57.4185 160.327 56.4266 160.134 55.5449 159.775V155.53C56.3164 156.109 57.198 156.412 58.1624 156.412C60.2288 156.412 61.2482 154.869 61.2482 151.809V139.872H65.7667V152.002Z" fill="white"/>
<path d="M69.5137 159.61V156.026C70.23 156.467 70.9739 156.798 71.6903 157.019C72.4066 157.239 73.0954 157.349 73.7567 157.349C74.5281 157.349 75.1618 157.239 75.6027 157.019C76.0435 156.798 76.2915 156.467 76.2915 156.026C76.2915 155.751 76.1812 155.502 75.9884 155.337C75.7955 155.144 75.52 154.979 75.1894 154.841C74.8587 154.703 74.5006 154.565 74.1424 154.455C73.7567 154.345 73.3985 154.207 73.0403 154.069C72.4617 153.848 71.9658 153.628 71.525 153.38C71.0841 153.132 70.726 152.856 70.4229 152.525C70.1198 152.194 69.8994 151.809 69.7616 151.395C69.5963 150.954 69.5412 150.458 69.5412 149.879C69.5412 149.079 69.7065 148.39 70.0647 147.811C70.4229 147.233 70.8913 146.764 71.4699 146.378C72.0484 146.02 72.7097 145.744 73.4812 145.551C74.2251 145.386 75.0241 145.303 75.8231 145.303C76.4568 145.303 77.0905 145.358 77.7517 145.441C78.413 145.551 79.0467 145.689 79.6803 145.882V149.3C79.1293 148.969 78.5232 148.721 77.8895 148.556C77.2558 148.39 76.6221 148.308 76.0159 148.308C75.7129 148.308 75.4649 148.335 75.1894 148.39C74.9414 148.445 74.6934 148.528 74.5006 148.611C74.3077 148.721 74.1424 148.831 74.0322 148.997C73.922 149.162 73.8669 149.328 73.8669 149.521C73.8669 149.769 73.9495 150.017 74.1148 150.182C74.2802 150.375 74.5006 150.54 74.7761 150.678C75.0516 150.816 75.3547 150.926 75.6853 151.037C76.0159 151.147 76.3466 151.257 76.6772 151.367C77.2558 151.56 77.8068 151.809 78.2752 152.029C78.7436 152.277 79.1569 152.553 79.515 152.884C79.8457 153.214 80.1212 153.6 80.2865 154.041C80.4793 154.482 80.562 155.006 80.562 155.613C80.562 156.467 80.3691 157.184 80.011 157.79C79.6528 158.397 79.1569 158.893 78.5507 159.252C77.9446 159.637 77.2282 159.913 76.4292 160.078C75.6302 160.244 74.8036 160.327 73.9495 160.327C72.324 160.327 70.8637 160.078 69.5137 159.61Z" fill="white"/>
<path d="M200.496 271.888H196.087L193.249 266.512C193.139 266.319 193.029 265.933 192.919 265.409H192.864C192.809 265.658 192.671 266.044 192.478 266.567L189.613 271.915H185.177L190.439 263.645L185.618 255.375H190.136L192.506 260.337C192.698 260.723 192.864 261.192 193.002 261.743H193.057C193.139 261.412 193.332 260.944 193.58 260.31L196.198 255.403H200.33L195.371 263.59L200.496 271.888Z" fill="white"/>
<path d="M221.876 271.888H218.212V261.992C218.212 260.917 218.267 259.731 218.349 258.463H218.267C218.074 259.483 217.909 260.2 217.743 260.641L213.886 271.888H210.855L206.888 260.779C206.778 260.476 206.612 259.704 206.364 258.463H206.254C206.364 260.09 206.392 261.523 206.392 262.736V271.861H203.058V255.348H208.513L211.875 265.134C212.15 265.906 212.343 266.706 212.453 267.505H212.536C212.756 266.595 212.949 265.796 213.197 265.107L216.559 255.348H221.876V271.888Z" fill="white"/>
<path d="M236.065 271.888H226.229V255.376H229.949V268.883H236.065V271.888Z" fill="white"/>
<path d="M266.07 144.448C278.468 144.448 290.866 144.448 303.265 144.448C307.701 144.448 307.701 137.557 303.265 137.557C290.866 137.557 278.468 137.557 266.07 137.557C261.634 137.557 261.634 144.448 266.07 144.448Z" fill="#EA8461"/>
<path d="M261.799 152.415C265.381 152.415 268.935 152.415 272.517 152.415C277.669 152.415 282.821 152.415 287.946 152.415C293.649 152.415 299.38 152.415 305.083 152.415C310.345 152.415 315.635 152.415 320.898 152.415C324.727 152.415 328.53 152.415 332.359 152.415C332.662 152.415 332.965 152.415 333.296 152.415C334.012 152.415 334.701 151.781 334.674 151.037C334.646 150.293 334.068 149.659 333.296 149.659C329.714 149.659 326.16 149.659 322.578 149.659C317.426 149.659 312.274 149.659 307.149 149.659C301.446 149.659 295.715 149.659 290.012 149.659C284.75 149.659 279.46 149.659 274.197 149.659C270.367 149.659 266.565 149.659 262.736 149.659C262.432 149.659 262.129 149.659 261.799 149.659C261.082 149.659 260.394 150.293 260.421 151.037C260.449 151.781 261.027 152.415 261.799 152.415Z" fill="#2A2769"/>
<path d="M343.491 152.415C348.257 152.415 353.024 152.415 357.79 152.415C362.557 152.415 367.296 152.415 372.062 152.415C374.762 152.415 377.462 152.415 380.162 152.415C380.879 152.415 381.568 151.781 381.54 151.037C381.512 150.293 380.934 149.659 380.162 149.659C375.396 149.659 370.629 149.659 365.863 149.659C361.096 149.659 356.357 149.659 351.591 149.659C348.891 149.659 346.191 149.659 343.491 149.659C342.774 149.659 342.086 150.293 342.113 151.037C342.141 151.781 342.719 152.415 343.491 152.415Z" fill="#2A2769"/>
<path d="M259.485 161.347C262.46 161.347 265.409 161.347 268.384 161.347C272.076 161.347 275.796 161.347 279.488 161.347C283.483 161.347 287.478 161.347 291.473 161.347C295.247 161.347 298.994 161.347 302.769 161.347C305.855 161.347 308.941 161.347 312.026 161.347C312.33 161.347 312.633 161.347 312.936 161.347C313.652 161.347 314.341 160.713 314.313 159.968C314.286 159.224 313.707 158.59 312.936 158.59C309.96 158.59 307.012 158.59 304.036 158.59C300.344 158.59 296.625 158.59 292.933 158.59C288.938 158.59 284.943 158.59 280.948 158.59C277.173 158.59 273.426 158.59 269.652 158.59C266.566 158.59 263.48 158.59 260.394 158.59C260.091 158.59 259.788 158.59 259.485 158.59C258.768 158.59 258.08 159.224 258.107 159.968C258.135 160.713 258.686 161.347 259.485 161.347Z" fill="#2A2769"/>
<path d="M323.405 161.347C328.254 161.347 333.131 161.347 337.98 161.347C342.829 161.347 347.679 161.347 352.528 161.347C355.283 161.347 358.011 161.347 360.766 161.347C361.482 161.347 362.171 160.713 362.143 159.968C362.116 159.224 361.537 158.59 360.766 158.59C355.917 158.59 351.04 158.59 346.191 158.59C341.342 158.59 336.492 158.59 331.643 158.59C328.888 158.59 326.16 158.59 323.405 158.59C322.689 158.59 322 159.224 322.028 159.968C322.055 160.713 322.606 161.347 323.405 161.347Z" fill="#2A2769"/>
<path d="M257.529 176.453C269.927 176.453 282.325 176.453 294.724 176.453C299.16 176.453 299.16 169.561 294.724 169.561C282.325 169.561 269.927 169.561 257.529 169.561C253.093 169.561 253.093 176.453 257.529 176.453Z" fill="#C7508E"/>
<path d="M253.258 184.42C256.84 184.42 260.394 184.42 263.976 184.42C269.128 184.42 274.28 184.42 279.405 184.42C285.108 184.42 290.839 184.42 296.542 184.42C301.804 184.42 307.094 184.42 312.357 184.42C316.186 184.42 319.989 184.42 323.818 184.42C324.121 184.42 324.425 184.42 324.755 184.42C325.471 184.42 326.16 183.786 326.133 183.041C326.105 182.297 325.527 181.663 324.755 181.663C321.173 181.663 317.619 181.663 314.037 181.663C308.885 181.663 303.733 181.663 298.608 181.663C292.905 181.663 287.174 181.663 281.471 181.663C276.209 181.663 270.919 181.663 265.656 181.663C261.826 181.663 258.024 181.663 254.195 181.663C253.891 181.663 253.588 181.663 253.258 181.663C252.541 181.663 251.853 182.297 251.88 183.041C251.908 183.786 252.486 184.42 253.258 184.42Z" fill="#2A2769"/>
<path d="M334.949 184.42C339.716 184.42 344.482 184.42 349.249 184.42C354.015 184.42 358.754 184.42 363.521 184.42C366.221 184.42 368.921 184.42 371.621 184.42C372.337 184.42 373.026 183.786 372.998 183.041C372.971 182.297 372.392 181.663 371.621 181.663C366.854 181.663 362.088 181.663 357.321 181.663C352.555 181.663 347.816 181.663 343.049 181.663C340.349 181.663 337.649 181.663 334.949 181.663C334.233 181.663 333.544 182.297 333.572 183.041C333.599 183.786 334.178 184.42 334.949 184.42Z" fill="#2A2769"/>
<path d="M250.943 193.351C253.919 193.351 256.867 193.351 259.843 193.351C263.535 193.351 267.254 193.351 270.946 193.351C274.941 193.351 278.936 193.351 282.931 193.351C286.706 193.351 290.453 193.351 294.227 193.351C297.313 193.351 300.399 193.351 303.485 193.351C303.788 193.351 304.091 193.351 304.394 193.351C305.111 193.351 305.799 192.717 305.772 191.973C305.744 191.229 305.166 190.595 304.394 190.595C301.419 190.595 298.47 190.595 295.495 190.595C291.803 190.595 288.083 190.595 284.391 190.595C280.396 190.595 276.401 190.595 272.406 190.595C268.632 190.595 264.885 190.595 261.11 190.595C258.024 190.595 254.938 190.595 251.853 190.595C251.549 190.595 251.246 190.595 250.943 190.595C250.227 190.595 249.538 191.229 249.566 191.973C249.593 192.745 250.172 193.351 250.943 193.351Z" fill="#2A2769"/>
<path d="M314.864 193.351C319.713 193.351 324.59 193.351 329.439 193.351C334.288 193.351 339.137 193.351 343.986 193.351C346.741 193.351 349.469 193.351 352.224 193.351C352.941 193.351 353.629 192.717 353.602 191.973C353.574 191.229 352.996 190.595 352.224 190.595C347.375 190.595 342.498 190.595 337.649 190.595C332.8 190.595 327.951 190.595 323.102 190.595C320.347 190.595 317.619 190.595 314.864 190.595C314.147 190.595 313.459 191.229 313.486 191.973C313.514 192.745 314.092 193.351 314.864 193.351Z" fill="#2A2769"/>
<path d="M271.029 331.074L269.734 337.497H268.963C269.1 336.366 269.1 335.567 268.963 335.071C268.742 334.299 268.329 333.72 267.723 333.334C267.117 332.976 266.262 332.783 265.133 332.783H261.276L256.096 353.706C255.682 355.387 255.6 356.435 255.848 356.848C256.206 357.427 256.922 357.703 257.997 357.703H258.934L258.741 358.447H247.141L247.334 357.703H248.299C249.456 357.703 250.365 357.344 251.026 356.655C251.439 356.214 251.825 355.249 252.211 353.706L257.391 332.783H254.112C252.845 332.783 251.908 332.865 251.329 333.058C250.558 333.306 249.841 333.803 249.18 334.519C248.491 335.236 247.968 336.228 247.555 337.469H246.783L248.684 331.046H271.029V331.074Z" fill="#334FA2"/>
<path d="M314.974 332.121C302.741 332.121 290.536 332.121 278.302 332.121C276.539 332.121 276.539 334.878 278.302 334.878C290.536 334.878 302.741 334.878 314.974 334.878C316.737 334.878 316.737 332.121 314.974 332.121Z" fill="white"/>
<path d="M312.054 343.947C299.821 343.947 287.615 343.947 275.382 343.947C273.619 343.947 273.619 346.704 275.382 346.704C287.615 346.704 299.821 346.704 312.054 346.704C313.817 346.704 313.817 343.947 312.054 343.947Z" fill="white"/>
<path d="M309.133 355.745C296.9 355.745 284.695 355.745 272.462 355.745C270.698 355.745 270.698 358.502 272.462 358.502C284.695 358.502 296.9 358.502 309.133 358.502C310.897 358.502 310.897 355.745 309.133 355.745Z" fill="white"/>
<path d="M306.213 367.544C287.808 367.544 269.376 367.544 250.971 367.544C246.976 367.544 243.008 367.544 239.013 367.544C237.25 367.544 237.25 370.3 239.013 370.3C257.418 370.3 275.85 370.3 294.255 370.3C298.25 370.3 302.218 370.3 306.213 370.3C307.976 370.3 307.976 367.544 306.213 367.544Z" fill="white"/>
<path d="M303.292 379.342C284.888 379.342 266.455 379.342 248.051 379.342C244.056 379.342 240.088 379.342 236.093 379.342C234.33 379.342 234.33 382.099 236.093 382.099C254.498 382.099 272.93 382.099 291.335 382.099C295.33 382.099 299.297 382.099 303.292 382.099C305.056 382.099 305.056 379.342 303.292 379.342Z" fill="white"/>
<path d="M85.3013 137.557H103.072L85.3013 145.689V137.557Z" fill="#EA8461"/>
<path d="M182.008 252.068H164.237L182.008 260.2V252.068Z" fill="#C7508E"/>
<path d="M321.972 337.386H361.978L321.972 355.69V337.386Z" fill="#D0CCE6"/>
<path d="M201.763 456.474C216.531 456.474 231.299 456.474 246.067 456.474C260.752 456.474 275.437 456.474 290.15 456.474C298.443 456.474 306.736 456.474 315.002 456.474C315.663 456.474 315.663 455.426 315.002 455.426C300.234 455.426 285.466 455.426 270.698 455.426C256.013 455.426 241.328 455.426 226.615 455.426C218.322 455.426 210.029 455.426 201.763 455.426C201.074 455.454 201.074 456.474 201.763 456.474Z" fill="#2A2769"/>
</g>
<defs>
<clipPath id="clip0_2769:19000">
<rect width="566" height="482" fill="white"/>
</clipPath>
</defs>
</svg>
